<svg id="visual" viewBox="0 0 900 600" width="900" height="600" xmlns="http://www.w3.org/2000/svg" xmlns:xlink="http://www.w3.org/1999/xlink" version="1.1"><rect x="0" y="0" width="900" height="600" fill="#161611"></rect><path d="M0 368L150 314L300 308L450 289L600 275L750 350L900 296L900 601L750 601L600 601L450 601L300 601L150 601L0 601Z" fill="#f5730a"></path><path d="M0 327L150 350L300 396L450 324L600 411L750 413L900 338L900 601L750 601L600 601L450 601L300 601L150 601L0 601Z" fill="#da5b09"></path><path d="M0 430L150 457L300 423L450 422L600 387L750 403L900 388L900 601L750 601L600 601L450 601L300 601L150 601L0 601Z" fill="#be4407"></path><path d="M0 442L150 458L300 507L450 468L600 459L750 503L900 451L900 601L750 601L600 601L450 601L300 601L150 601L0 601Z" fill="#a32d04"></path><path d="M0 523L150 555L300 519L450 546L600 507L750 524L900 513L900 601L750 601L600 601L450 601L300 601L150 601L0 601Z" fill="#871400"></path></svg>