<svg id="visual" viewBox="0 0 900 600" width="900" height="600" xmlns="http://www.w3.org/2000/svg" xmlns:xlink="http://www.w3.org/1999/xlink" version="1.1"><rect x="0" y="0" width="900" height="600" fill="#101010"></rect><path d="M0 384L129 439L257 428L386 355L514 419L643 430L771 417L900 444L900 601L771 601L643 601L514 601L386 601L257 601L129 601L0 601Z" fill="#f5730a"></path><path d="M0 431L129 431L257 400L386 441L514 419L643 480L771 471L900 434L900 601L771 601L643 601L514 601L386 601L257 601L129 601L0 601Z" fill="#e25e0a"></path><path d="M0 483L129 461L257 473L386 481L514 442L643 471L771 469L900 446L900 601L771 601L643 601L514 601L386 601L257 601L129 601L0 601Z" fill="#cf4a09"></path><path d="M0 507L129 504L257 528L386 512L514 498L643 508L771 484L900 512L900 601L771 601L643 601L514 601L386 601L257 601L129 601L0 601Z" fill="#bc3608"></path><path d="M0 565L129 536L257 536L386 563L514 559L643 563L771 552L900 535L900 601L771 601L643 601L514 601L386 601L257 601L129 601L0 601Z" fill="#a81f07"></path></svg>