<svg id="visual" viewBox="0 0 900 600" width="900" height="600" xmlns="http://www.w3.org/2000/svg" xmlns:xlink="http://www.w3.org/1999/xlink" version="1.1"><rect x="0" y="0" width="900" height="600" fill="#161611"></rect><path d="M0 327L129 410L257 409L386 392L514 327L643 348L771 372L900 378L900 601L771 601L643 601L514 601L386 601L257 601L129 601L0 601Z" fill="#f5730a"></path><path d="M0 356L129 454L257 373L386 409L514 367L643 449L771 380L900 390L900 601L771 601L643 601L514 601L386 601L257 601L129 601L0 601Z" fill="#da5b09"></path><path d="M0 407L129 446L257 412L386 439L514 464L643 455L771 449L900 430L900 601L771 601L643 601L514 601L386 601L257 601L129 601L0 601Z" fill="#be4407"></path><path d="M0 481L129 516L257 465L386 525L514 473L643 523L771 515L900 468L900 601L771 601L643 601L514 601L386 601L257 601L129 601L0 601Z" fill="#a32d04"></path><path d="M0 559L129 565L257 543L386 552L514 531L643 538L771 550L900 544L900 601L771 601L643 601L514 601L386 601L257 601L129 601L0 601Z" fill="#871400"></path></svg>